<?xml version="1.0" standalone="no"?>
<!DOCTYPE svg PUBLIC "-//W3C//DTD SVG 20010904//EN"
 "http://www.w3.org/TR/2001/REC-SVG-20010904/DTD/svg10.dtd">
<svg version="1.0" xmlns="http://www.w3.org/2000/svg"
 width="512.000000pt" height="512.000000pt" viewBox="0 0 512.000000 512.000000"
 preserveAspectRatio="xMidYMid meet">
<metadata>
Created by potrace 1.14, written by Peter Selinger 2001-2017
</metadata>
<g transform="translate(0.000000,512.000000) scale(0.100000,-0.100000)"
fill="#000000" stroke="none">
<path d="M397 5104 c-97 -23 -167 -63 -242 -139 -77 -77 -116 -145 -140 -247
-22 -95 -22 -4221 0 -4316 24 -102 63 -170 140 -247 77 -77 145 -116 247 -140
95 -22 4221 -22 4316 0 102 24 170 63 247 140 77 77 116 145 140 247 22 95 22
4221 0 4316 -24 102 -63 170 -140 247 -77 77 -145 116 -247 140 -92 22 -4231
21 -4321 -1z m2593 -880 c150 -18 339 -62 450 -104 44 -17 80 -34 80 -37 0
-10 -103 -308 -110 -316 -3 -4 -53 11 -111 32 -317 120 -586 161 -854 131
-372 -42 -495 -184 -495 -568 0 -215 37 -334 132 -424 82 -78 203 -114 638
-188 354 -60 469 -88 576 -140 183 -88 288 -259 324 -526 19 -137 9 -444 -18
-559 -70 -302 -232 -488 -506 -582 -156 -52 -274 -68 -506 -67 -305 1 -527 34
-775 114 -131 43 -302 122 -311 143 -3 10 116 280 131 295 2 2 58 -22 125 -53
151 -70 324 -128 478 -161 172 -37 447 -44 585 -16 171 36 290 106 347 205 60
104 72 163 78 377 7 290 -14 387 -98 469 -71 68 -248 125 -540 171 -181 29
-400 75 -480 100 -36 12 -112 44 -170 73 -185 91 -290 222 -347 435 -25 90
-27 112 -27 312 -1 253 14 331 91 490 83 172 241 301 438 358 205 60 552 74
875 36z"/>
</g>
</svg>
